<?xml version="1.0" encoding="utf-8"?>
<!-- Generator: Adobe Illustrator 16.0.0, SVG Export Plug-In . SVG Version: 6.00 Build 0)  -->
<!DOCTYPE svg PUBLIC "-//W3C//DTD SVG 1.1//EN" "http://www.w3.org/Graphics/SVG/1.1/DTD/svg11.dtd">
<svg version="1.1" id="Layer_1" xmlns="http://www.w3.org/2000/svg" xmlns:xlink="http://www.w3.org/1999/xlink" x="0px" y="0px"
	 width="169.565px" height="147.247px" viewBox="0 0 169.565 147.247" enable-background="new 0 0 169.565 147.247"
	 xml:space="preserve">
<g>
	<path fill="#131E26" d="M36.013,2.965h1.977c0.165,0,0.247,0.083,0.247,0.247c0.165,0,0.247-0.082,0.247-0.247
		c2.141,0.165,3.212,0.412,3.212,0.741c-0.165,0.494-0.659,0.741-1.482,0.741h-3.459v2.718l-0.247,2.471h3.706
		c0.329,0.05,0.494,0.215,0.494,0.494v0.741l-2.471,0.247h-1.729c-0.165,5.973-0.247,10.506-0.247,13.6V30.4h-0.988l-0.494-0.247
		c-0.165-3.882-0.247-6.768-0.247-8.658v-5.188C34.531,7.412,35.025,2.965,36.013,2.965z"/>
	<path fill="#131E26" d="M45.037,2.965c3.817,0.165,5.793,0.247,5.93,0.247l0.247,0.494v0.741h-2.965
		c0.165,5.021,0.247,8.232,0.247,9.636l0.247,1.235h-0.247l0.247,0.494v0.247c0,5.063-0.165,9.185-0.494,12.364
		c0.329,0,0.494,0.082,0.494,0.247l0.494-0.247h0.741c0.329,0.05,0.494,0.215,0.494,0.494v0.494c0,0.329-0.247,0.494-0.741,0.494
		c-2.894,0.165-4.623,0.247-5.188,0.247l-0.247-0.494v-0.247c0.165-0.494,0.659-0.741,1.482-0.741h0.741V14.083
		c0-2.069-0.083-4.623-0.247-7.659c0.165-0.165,0.247-0.823,0.247-1.977c-1.482-0.2-2.224-0.447-2.224-0.741V3.459
		C44.295,3.13,44.542,2.965,45.037,2.965z"/>
	<path fill="#131E26" d="M60.538,0h0.494c0.329,1.318,0.494,2.389,0.494,3.212c-0.165,10.957-0.247,17.052-0.247,18.283h-0.247
		c0,0.165,0.082,0.247,0.247,0.247c0,4.125-0.494,6.188-1.482,6.188h-0.247c-0.616-0.423-1.604-4.215-2.965-11.376
		c-0.279,0-0.609-1.235-0.988-3.706h-0.247c0,0.602-0.083,4.476-0.247,11.623h-0.247c0,0.165,0.082,0.247,0.247,0.247l-0.247,1.235
		v1.977c0,0.329-0.165,0.494-0.494,0.494h-0.988v-1.235c0-0.165,0.082-0.247,0.247-0.247c0-0.165-0.083-0.247-0.247-0.247
		c0.165-3.044,0.247-5.271,0.247-6.682V3.212c0.1-0.988,0.347-1.482,0.741-1.482c0.659,0,1.729,4.118,3.212,12.354
		c1.153,4.132,1.729,6.686,1.729,7.659h0.247c0-0.823,0.082-1.235,0.247-1.235c0-0.165-0.083-0.247-0.247-0.247
		c0.165-2.22,0.247-3.867,0.247-4.941v-2.718c0-2.535,0.082-6.653,0.247-12.354L60.538,0z"/>
	<path fill="#131E26" d="M65.93,1.977h0.494c3.208,0,5.761,2.718,7.659,8.153c0.215,0.208,0.379,1.361,0.494,3.459
		c0,5.515-2.224,10.789-6.671,15.823l-2.471,0.741c-0.33-0.838-0.494-1.415-0.494-1.729h0.247l-0.247-0.494v-3.459l-0.247-1.235
		h0.247l-0.247-0.494v-5.199c0-1.747,0.082-3.147,0.247-4.2c-0.165-1.182-0.247-2.664-0.247-4.447V6.177
		C64.802,3.377,65.214,1.977,65.93,1.977z M66.671,3.212v0.247c0,0.738,0.082,1.232,0.247,1.482
		c-0.33,9.195-0.494,15.129-0.494,17.8c0.165,2.141,0.247,3.871,0.247,5.188c-0.165,0-0.247,0.082-0.247,0.247h0.247
		c4.118-3.509,6.177-8.125,6.177-13.847v-2.471c0-2.292-1.729-5.092-5.188-8.4L66.671,3.212z"/>
	<path fill="#131E26" d="M77.994,2.965c3.817,0.165,5.793,0.247,5.93,0.247l0.247,0.494v0.741h-2.965
		c0.165,5.021,0.247,8.232,0.247,9.636l0.247,1.235h-0.247l0.247,0.494v0.247c0,5.063-0.165,9.185-0.494,12.364
		c0.329,0,0.494,0.082,0.494,0.247l0.494-0.247h0.741c0.329,0.05,0.494,0.215,0.494,0.494v0.494c0,0.329-0.247,0.494-0.741,0.494
		c-2.894,0.165-4.623,0.247-5.188,0.247l-0.247-0.494v-0.247c0.165-0.494,0.659-0.741,1.482-0.741h0.741V14.083
		c0-2.069-0.083-4.623-0.247-7.659c0.165-0.165,0.247-0.823,0.247-1.977c-1.482-0.2-2.224-0.447-2.224-0.741V3.459
		C77.252,3.13,77.5,2.965,77.994,2.965z"/>
	<path fill="#131E26" d="M93.494,0h0.494c0.33,1.318,0.494,2.389,0.494,3.212c-0.164,10.957-0.246,17.052-0.246,18.283h-0.248
		c0,0.165,0.082,0.247,0.248,0.247c0,4.125-0.494,6.188-1.482,6.188h-0.248c-0.615-0.423-1.604-4.215-2.965-11.376
		c-0.279,0-0.607-1.235-0.988-3.706h-0.246c0,0.602-0.083,4.476-0.248,11.623h-0.246c0,0.165,0.082,0.247,0.246,0.247l-0.246,1.235
		v1.977c0,0.329-0.166,0.494-0.495,0.494H86.33v-1.235c0-0.165,0.082-0.247,0.247-0.247c0-0.165-0.083-0.247-0.247-0.247
		c0.165-3.044,0.247-5.271,0.247-6.682V3.212c0.1-0.988,0.347-1.482,0.741-1.482c0.659,0,1.729,4.118,3.211,12.354
		c1.154,4.132,1.73,6.686,1.73,7.659h0.246c0-0.823,0.082-1.235,0.248-1.235c0-0.165-0.082-0.247-0.248-0.247
		c0.166-2.22,0.248-3.867,0.248-4.941v-2.718c0-2.535,0.082-6.653,0.246-12.354L93.494,0z"/>
	<path fill="#131E26" d="M101.873,1.482h0.741c0.451,0,0.945,0.906,1.482,2.718l-0.494,2.965h-0.247
		c-0.329,0-0.494-0.165-0.494-0.494V3.953c0-0.888-0.329-1.464-0.988-1.729h-0.247c-1.482,1.311-2.306,7.734-2.471,19.271
		c0.608,5.113,1.268,7.67,1.977,7.67c1.647-0.945,2.471-2.757,2.471-5.436v-1.74c0-0.33-0.823-0.577-2.471-0.741l-0.247-0.494
		v-0.247c0-0.659,0.988-0.988,2.965-0.988c0.823,0.874,1.235,1.948,1.235,3.223c-0.58,4.941-1.897,7.412-3.953,7.412h-0.247
		c-1.869,0-3.022-2.886-3.459-8.658v-5.188C97.426,6.424,98.908,1.482,101.873,1.482z"/>
	<path fill="#131E26" d="M121.553,2.224h0.247c1.132,0,2.12,4.941,2.965,14.824v9.894c-0.114,2.141-0.444,3.212-0.988,3.212h-0.247
		c-0.329,0-0.494-0.165-0.494-0.494c0-1.568,0.082-4.784,0.247-9.646c-0.165-4.719-0.412-7.931-0.741-9.636h-2.224
		c-1.153,5.049-2.306,11.229-3.459,18.541l-0.741,0.494h-0.494c0-0.179-0.082-0.426-0.247-0.741c0-3.18,1.482-10.76,4.447-22.741
		C120.496,3.459,121.073,2.224,121.553,2.224z M121.553,6.177c-0.494,1.726-0.741,2.714-0.741,2.965h1.482
		c0-0.315-0.165-1.303-0.494-2.965H121.553z"/>
	<path fill="#131E26" d="M134.337,0h0.494c0.329,1.318,0.494,2.389,0.494,3.212c-0.165,10.957-0.247,17.052-0.247,18.283h-0.247
		c0,0.165,0.082,0.247,0.247,0.247c0,4.125-0.494,6.188-1.482,6.188h-0.247c-0.616-0.423-1.604-4.215-2.965-11.376
		c-0.279,0-0.608-1.235-0.988-3.706h-0.247c0,0.602-0.082,4.476-0.247,11.623h-0.247c0,0.165,0.082,0.247,0.247,0.247l-0.247,1.235
		v1.977c0,0.329-0.165,0.494-0.494,0.494h-0.988v-1.235c0-0.165,0.082-0.247,0.247-0.247c0-0.165-0.082-0.247-0.247-0.247
		c0.165-3.044,0.247-5.271,0.247-6.682V3.212c0.101-0.988,0.348-1.482,0.741-1.482c0.659,0,1.729,4.118,3.212,12.354
		c1.153,4.132,1.729,6.686,1.729,7.659h0.247c0-0.823,0.082-1.235,0.247-1.235c0-0.165-0.082-0.247-0.247-0.247
		c0.165-2.22,0.247-3.867,0.247-4.941v-2.718c0-2.535,0.082-6.653,0.247-12.354L134.337,0z"/>
	<path fill="#131E26" d="M16.399,58.245c-1.133-0.456-1.7-1.447-1.7-2.975v-1.7c0-2.611,1.275-4.877,3.824-6.798h0.425
		c0.407,0,0.832,0.425,1.275,1.274v0.85C18.24,55.129,16.965,58.245,16.399,58.245z"/>
	<path fill="#131E26" d="M24.676,50.337h2.974c3.116,0,4.674,0.425,4.674,1.275c0,0.764-1.842,1.33-5.524,1.7v5.949
		c0,0.566,1.416,0.992,4.249,1.274v1.275c-3.116,0-4.674,0.992-4.674,2.975c-0.283,3.978-0.566,14.324-0.85,31.037
		c0.283,0.283,2.408,0.566,6.374,0.851v0.85c0,0.566-0.283,0.85-0.85,0.85h-7.224c-0.406,0-0.831-0.425-1.275-1.274
		c0.283-23.672,0.708-37.842,1.275-42.51c-0.283-0.554-0.425-0.979-0.425-1.274C23.782,51.329,24.208,50.337,24.676,50.337z"/>
	<path fill="#131E26" d="M38.993,47.363c1.355,0,3.763,6.232,7.224,18.696c1.108,0,3.091-5.949,5.949-17.846l1.275-0.85h0.85
		l0.425,2.125c0,2.672-2.266,10.038-6.798,22.095c3.399,10.69,5.099,18.062,5.099,22.114v1.7h-1.275
		c-1.293-0.9-3.135-6.571-5.524-17.016l-0.85-0.425c-3.522,11.503-5.647,17.458-6.374,17.864h-0.425c-0.567,0-0.85-0.283-0.85-0.85
		c0-0.664,2.125-8.32,6.374-22.963c-4.249-12.39-6.374-20.181-6.374-23.371C37.718,48.231,38.144,47.807,38.993,47.363z"/>
	<path fill="#131E26" d="M75.961,47.788v0.425c0,1.515-2.267,2.365-6.799,2.549c-0.566,5.457-0.85,12.538-0.85,21.246v10.623
		c0,0.283-0.142,0.425-0.425,0.425l0.425,0.85v8.092l-0.85,2.975h-0.425l-1.275-0.85c-0.283-5.666-0.425-9.921-0.425-12.766V63.935
		c0-0.283,0.142-0.425,0.425-0.425l-0.425-0.85c0-0.283,0.142-0.425,0.425-0.425c0-0.283-0.142-0.425-0.425-0.425l0.425-2.125
		v-7.648l0.425-0.85h-3.399c-0.702,0-1.977-0.283-3.824-0.85v-0.85c0.172-0.85,1.305-1.275,3.399-1.275
		C65.344,48.213,69.876,48.071,75.961,47.788z"/>
	<path fill="#131E26" d="M81.227,51.187c6.564,0.284,9.963,0.425,10.197,0.425l0.426,0.85v1.275h-5.1
		c0.283,8.634,0.425,14.158,0.425,16.572l0.424,2.125h-0.424l0.424,0.85v0.425c0,8.708-0.283,15.795-0.85,21.264
		c0.566,0,0.85,0.142,0.85,0.426l0.85-0.426h1.275c0.566,0.086,0.85,0.369,0.85,0.85v0.851c0,0.565-0.424,0.85-1.275,0.85
		c-4.975,0.283-7.95,0.425-8.922,0.425l-0.425-0.85v-0.425c0.283-0.851,1.133-1.274,2.549-1.274h1.275V70.309
		c0-3.56-0.142-7.95-0.425-13.172c0.283-0.283,0.425-1.417,0.425-3.399c-2.549-0.345-3.824-0.77-3.824-1.275v-0.425
		C79.952,51.471,80.376,51.187,81.227,51.187z"/>
	<path fill="#131E26" d="M107.886,46.088h0.85c0.566,2.266,0.85,4.107,0.85,5.524c-0.283,18.844-0.425,29.325-0.425,31.443h-0.425
		c0,0.283,0.142,0.426,0.425,0.426c0,7.094-0.85,10.641-2.55,10.641h-0.425c-1.06-0.727-2.759-7.248-5.099-19.564
		c-0.48,0-1.047-2.125-1.7-6.374h-0.425c0,1.034-0.142,7.698-0.425,19.989h-0.425c0,0.283,0.142,0.426,0.425,0.426l-0.425,2.124
		v3.399c0,0.566-0.283,0.85-0.85,0.85h-1.7v-2.125c0-0.283,0.142-0.424,0.426-0.424c0-0.283-0.143-0.426-0.426-0.426
		c0.283-5.234,0.426-9.064,0.426-11.49V51.612c0.172-1.7,0.597-2.55,1.274-2.55c1.133,0,2.975,7.083,5.523,21.246
		c1.983,7.106,2.975,11.497,2.975,13.173h0.425c0-1.417,0.142-2.125,0.425-2.125c0-0.283-0.142-0.426-0.425-0.426
		c0.283-3.817,0.425-6.65,0.425-8.498v-4.674c0-4.36,0.142-11.442,0.426-21.246L107.886,46.088z"/>
	<path fill="#131E26" d="M121.926,50.337c2.266,0,3.399,1.558,3.399,4.674v2.125c0,0.566-0.284,0.85-0.85,0.85h-0.426l-0.425-2.974
		h0.425c-0.492-1.983-1.059-2.975-1.699-2.975h-0.85c-1.799,0-3.073,11.621-3.824,34.861c0.566,6.231,1.558,9.349,2.975,9.349h1.699
		c0.566-1.453,0.991-4.287,1.274-8.498h1.275l0.425,2.124c0,4.052-1.134,6.743-3.399,8.073h-0.85c-3.338,0-5.321-3.258-5.949-9.773
		l-0.425-2.549h0.425l-0.425-0.85v-6.393l-0.425-2.549c1.244-16.997,3.51-25.496,6.799-25.496H121.926z"/>
	<path fill="#131E26" d="M147.088,47.788v0.425c0,1.515-2.267,2.365-6.799,2.549c-0.566,5.457-0.85,12.538-0.85,21.246v10.623
		c0,0.283-0.142,0.425-0.425,0.425l0.425,0.85v8.092l-0.85,2.975h-0.426l-1.274-0.85c-0.283-5.666-0.425-9.921-0.425-12.766V63.935
		c0-0.283,0.142-0.425,0.425-0.425l-0.425-0.85c0-0.283,0.142-0.425,0.425-0.425c0-0.283-0.142-0.425-0.425-0.425l0.425-2.125
		v-7.648l0.425-0.85h-3.399c-0.702,0-1.977-0.283-3.824-0.85v-0.85c0.173-0.85,1.306-1.275,3.399-1.275
		C136.471,48.213,141.003,48.071,147.088,47.788z"/>
	<path fill="#131E26" d="M153.517,46.772c1.133,0.456,1.7,1.447,1.7,2.974v1.7c0,2.611-1.275,4.877-3.824,6.799h-0.426
		c-0.406,0-0.831-0.425-1.274-1.275v-0.85C151.676,49.888,152.95,46.772,153.517,46.772z"/>
	<path fill="#131E26" d="M7.165,117.093h0.494c0.329,1.318,0.494,2.389,0.494,3.213c0,16.313-0.412,24.471-1.235,24.471
		c-0.315,0.164-0.562,0.246-0.741,0.246c-0.616-0.494-1.604-4.285-2.965-11.375c-0.279,0-0.609-1.236-0.988-3.707H1.977v3.707
		c0,0.164-0.083,0.246-0.247,0.246c0,0.166,0.082,0.248,0.247,0.248c-0.165,1.94-0.33,5.65-0.494,11.129l-0.494,0.246H0
		c0.165-3.545,0.247-6.184,0.247-7.916v-17.295c0.1-0.988,0.347-1.482,0.741-1.482c0.688,0,1.84,4.529,3.459,13.588
		c0.988,3.295,1.482,5.436,1.482,6.424h0.247l0.494-21.494L7.165,117.093z"/>
	<path fill="#131E26" d="M12.085,119.069h1.235c2.141,0,3.212,0.248,3.212,0.742c0,0.443-1.071,0.773-3.212,0.988v3.459
		c0,0.329,0.823,0.576,2.471,0.74v0.742c-1.812,0-2.718,0.576-2.718,1.729c-0.165,0.939-0.247,2.256-0.247,3.953v2.471
		c0,2.535-0.083,6.41-0.247,11.623c0.165,0.165,1.4,0.33,3.706,0.494v0.494c0,0.33-0.165,0.494-0.494,0.494h-4.2
		c-0.236,0-0.483-0.246-0.741-0.74c0.165-14.545,0.412-22.537,0.741-23.977c0-0.165-0.083-0.248-0.247-0.248
		C11.508,120.058,11.755,119.069,12.085,119.069z"/>
	<path fill="#131E26" d="M20.399,118.329h0.247c0.659,0,1.317,5.105,1.977,15.318c0.114,0,0.444,2.969,0.988,8.904h0.247
		c1.647-10.111,2.471-17.527,2.471-22.246v-1.236c0.165-0.494,0.659-0.74,1.482-0.74c0.329,0.68,1.153,8.837,2.471,24.471h0.247
		c0.995-4.619,1.987-12.693,2.976-24.225l0.494-0.246c0.329,0.05,0.494,0.215,0.494,0.494v1.234l-0.247,1.482
		c0,0.166,0.082,0.248,0.247,0.248c-0.659,9.467-1.815,17.295-3.47,23.482c-0.537,0.328-1.031,0.494-1.482,0.494
		c-0.845,0-1.586-5.193-2.224-15.576H27.07c-1.49,10.383-2.725,15.576-3.706,15.576H22.87c-1.024,0-2.013-7.581-2.965-22.742
		c-0.165,0-0.33-1.152-0.494-3.459C19.733,118.812,20.062,118.4,20.399,118.329z"/>
	<path fill="#131E26" d="M46.428,118.823h3.459c2.277,0.093,3.513,0.34,3.706,0.74c0,1.031-1.895,7.624-5.683,19.777
		c-0.781,1.273-1.522,2.922-2.224,4.941h0.247c2.986,0.164,4.963,0.246,5.93,0.246v0.988c0,0.33-0.165,0.494-0.494,0.494
		c-3.166,0.165-5.225,0.248-6.177,0.248c-0.659,0-1.153-0.33-1.482-0.988v-0.248c0.659-0.608,2.553-6.707,5.683-18.293
		c0.165-0.094,0.906-2.152,2.224-6.178h-1.235c-0.953,0-2.271,0.083-3.953,0.248c-0.988-0.215-1.482-0.463-1.482-0.742v-0.494
		C45.11,119.069,45.604,118.823,46.428,118.823z"/>
	<path fill="#131E26" d="M56.944,119.069h1.235c2.141,0,3.212,0.248,3.212,0.742c0,0.443-1.071,0.773-3.212,0.988v3.459
		c0,0.329,0.823,0.576,2.471,0.74v0.742c-1.812,0-2.718,0.576-2.718,1.729c-0.165,0.939-0.247,2.256-0.247,3.953v2.471
		c0,2.535-0.083,6.41-0.247,11.623c0.165,0.165,1.4,0.33,3.706,0.494v0.494c0,0.33-0.165,0.494-0.494,0.494h-4.2
		c-0.236,0-0.483-0.246-0.741-0.74c0.165-14.545,0.412-22.537,0.741-23.977c0-0.165-0.083-0.248-0.247-0.248
		C56.368,120.058,56.615,119.069,56.944,119.069z"/>
	<path fill="#131E26" d="M70.125,119.069h0.247c1.131,0,2.12,4.941,2.965,14.824v9.895c-0.115,2.141-0.444,3.211-0.988,3.211h-0.247
		c-0.33,0-0.494-0.164-0.494-0.494c0-1.568,0.082-4.783,0.247-9.646c-0.165-4.719-0.412-7.931-0.741-9.635H68.89
		c-1.153,5.049-2.306,11.229-3.459,18.541l-0.741,0.494h-0.494c0-0.18-0.083-0.427-0.247-0.742c0-3.18,1.482-10.76,4.447-22.74
		C69.068,120.306,69.645,119.069,70.125,119.069z M70.125,123.022c-0.494,1.727-0.741,2.715-0.741,2.965h1.482
		c0-0.314-0.165-1.303-0.494-2.965H70.125z"/>
	<path fill="#131E26" d="M77.172,117.587h0.741c0.329,2.572,0.494,4.466,0.494,5.684H78.16l0.247,0.494v4.693
		c0,3.174-0.083,7.871-0.247,14.094h-0.247c0.165,0.287,0.247,0.616,0.247,0.988h1.977c0.165,0,0.247,0.082,0.247,0.248l0.494-0.248
		c0.823,0.208,1.235,0.455,1.235,0.742v0.246c-0.165,0.494-0.659,0.742-1.482,0.742h-2.965c-0.824,0-1.235-2.229-1.235-6.682v-2.719
		c0-0.164,0.082-0.246,0.247-0.246c0-0.165-0.083-0.248-0.247-0.248c0-0.328,0.082-0.494,0.247-0.494
		c-0.165-4.174-0.247-7.222-0.247-9.141v-6.672C76.531,118.081,76.778,117.587,77.172,117.587z"/>
	<path fill="#131E26" d="M90.621,119.069h0.247c1.132,0,2.12,4.941,2.965,14.824v9.895c-0.114,2.141-0.444,3.211-0.988,3.211h-0.247
		c-0.329,0-0.494-0.164-0.494-0.494c0-1.568,0.082-4.783,0.247-9.646c-0.165-4.719-0.412-7.931-0.741-9.635h-2.224
		c-1.153,5.049-2.306,11.229-3.459,18.541l-0.741,0.494h-0.494c0-0.18-0.083-0.427-0.247-0.742c0-3.18,1.482-10.76,4.447-22.74
		C89.564,120.306,90.142,119.069,90.621,119.069z M90.621,123.022c-0.494,1.727-0.741,2.715-0.741,2.965h1.482
		c0-0.314-0.165-1.303-0.494-2.965H90.621z"/>
	<path fill="#131E26" d="M103.404,116.847h0.494c0.329,1.317,0.494,2.389,0.494,3.211c-0.165,10.957-0.247,17.053-0.247,18.283
		h-0.247c0,0.165,0.082,0.248,0.247,0.248c0,4.125-0.494,6.188-1.482,6.188h-0.247c-0.616-0.424-1.604-4.215-2.965-11.377
		c-0.279,0-0.608-1.234-0.988-3.705h-0.247c0,0.602-0.082,4.476-0.247,11.623h-0.247c0,0.164,0.082,0.246,0.247,0.246l-0.247,1.236
		v1.977c0,0.328-0.165,0.494-0.494,0.494h-0.988v-1.236c0-0.164,0.082-0.246,0.247-0.246c0-0.166-0.082-0.248-0.247-0.248
		c0.165-3.043,0.247-5.271,0.247-6.682v-16.801c0.101-0.988,0.348-1.482,0.741-1.482c0.659,0,1.729,4.119,3.212,12.354
		c1.153,4.133,1.729,6.686,1.729,7.66h0.247c0-0.824,0.082-1.236,0.247-1.236c0-0.164-0.082-0.246-0.247-0.246
		c0.165-2.221,0.247-3.867,0.247-4.941v-2.719c0-2.535,0.082-6.652,0.247-12.354L103.404,116.847z"/>
	<path fill="#131E26" d="M108.797,118.823h0.494c3.208,0,5.762,2.717,7.659,8.152c0.215,0.209,0.38,1.361,0.494,3.459
		c0,5.516-2.224,10.789-6.671,15.824l-2.471,0.74c-0.329-0.838-0.494-1.414-0.494-1.729h0.247l-0.247-0.494v-3.459l-0.247-1.236
		h0.247l-0.247-0.494v-5.199c0-1.746,0.082-3.146,0.247-4.199c-0.165-1.182-0.247-2.664-0.247-4.447v-2.719
		C107.669,120.224,108.081,118.823,108.797,118.823z M109.538,120.058v0.248c0,0.737,0.082,1.231,0.247,1.482
		c-0.329,9.195-0.494,15.129-0.494,17.799c0.165,2.142,0.247,3.871,0.247,5.189c-0.165,0-0.247,0.082-0.247,0.246h0.247
		c4.118-3.509,6.177-8.124,6.177-13.846v-2.471c0-2.292-1.729-5.092-5.188-8.4L109.538,120.058z"/>
	<path fill="#131E26" d="M130.335,119.317h0.494c2.142,0.565,3.212,1.801,3.212,3.705c0,1.375-0.741,2.693-2.224,3.953
		c2.471,2.078,3.706,4.96,3.706,8.648c0,4.211-1.647,7.508-4.941,9.893c0,0.208-0.659,0.785-1.977,1.73h-0.494
		c-0.494-0.166-0.741-0.66-0.741-1.482v-5.436c0-0.166,0.082-0.248,0.247-0.248c0-0.164-0.082-0.246-0.247-0.246
		c0.823-13.514,1.482-20.271,1.977-20.271C129.633,119.399,129.963,119.317,130.335,119.317z M129.594,133.894v0.494
		c0,0.166-0.082,0.248-0.247,0.248c0,0.164,0.082,0.246,0.247,0.246l-0.247,1.236v4.951c0,0.165-0.082,0.248-0.247,0.248
		c0,0.164,0.082,0.246,0.247,0.246l-0.247,1.73v2.717c3.13-2.155,4.694-5.453,4.694-9.893v-1.73c0-2.455-1.07-4.68-3.212-6.67
		C129.923,127.718,129.594,129.776,129.594,133.894z M130.582,120.306l-0.494,6.67c1.317,0,2.142-0.905,2.471-2.717v-0.742
		C132.559,121.921,131.899,120.85,130.582,120.306z"/>
	<path fill="#131E26" d="M139.154,119.812c3.817,0.164,5.794,0.246,5.93,0.246l0.247,0.494v0.742h-2.965
		c0.165,5.02,0.247,8.232,0.247,9.635l0.247,1.236h-0.247l0.247,0.494v0.246c0,5.063-0.165,9.186-0.494,12.365
		c0.329,0,0.494,0.082,0.494,0.246l0.494-0.246h0.741c0.329,0.049,0.494,0.215,0.494,0.494v0.494c0,0.328-0.247,0.494-0.741,0.494
		c-2.894,0.164-4.623,0.246-5.188,0.246l-0.247-0.494v-0.246c0.165-0.494,0.659-0.742,1.482-0.742h0.741v-14.588
		c0-2.068-0.082-4.622-0.247-7.658c0.165-0.165,0.247-0.824,0.247-1.977c-1.482-0.201-2.224-0.447-2.224-0.742v-0.246
		C138.413,119.976,138.66,119.812,139.154,119.812z"/>
	<path fill="#131E26" d="M148.94,118.081h2.718c1.977,0.602,2.965,1.92,2.965,3.953c-0.716,1.977-1.704,2.965-2.965,2.965
		c3.294,4.426,4.941,8.956,4.941,13.59h-0.247l0.247,0.504v1.73c0,2.965-0.329,4.447-0.988,4.447
		c-0.315-0.166-0.562-0.248-0.741-0.248v-0.246c0-8.709-1.07-14.23-3.212-16.564c-0.494-1.11-0.741-1.77-0.741-1.977h-0.494
		c0,1.461-0.082,3.107-0.247,4.941l0.247,1.482h-0.247c0,0.164,0.082,0.246,0.247,0.246c-0.093,7.914-0.505,11.871-1.235,11.871
		h-0.247c-0.329,0-0.576-0.577-0.741-1.73c0.329-3.036,0.494-5.758,0.494-8.164c0-4.002-0.165-9.273-0.494-15.812
		C148.45,118.411,148.697,118.081,148.94,118.081z M150.176,119.563v1.482c0,0.824,0.082,2.06,0.247,3.707h0.247
		c1.647-0.709,2.471-1.697,2.471-2.965c-0.709-1.977-1.285-2.965-1.729-2.965h-0.494
		C150.681,118.823,150.434,119.069,150.176,119.563z"/>
	<path fill="#131E26" d="M160.918,118.823h0.494c3.208,0,5.762,2.717,7.659,8.152c0.215,0.209,0.38,1.361,0.494,3.459
		c0,5.516-2.224,10.789-6.671,15.824l-2.471,0.74c-0.329-0.838-0.494-1.414-0.494-1.729h0.247l-0.247-0.494v-3.459l-0.247-1.236
		h0.247l-0.247-0.494v-5.199c0-1.746,0.082-3.146,0.247-4.199c-0.165-1.182-0.247-2.664-0.247-4.447v-2.719
		C159.79,120.224,160.202,118.823,160.918,118.823z M161.659,120.058v0.248c0,0.737,0.082,1.231,0.247,1.482
		c-0.329,9.195-0.494,15.129-0.494,17.799c0.165,2.142,0.247,3.871,0.247,5.189c-0.165,0-0.247,0.082-0.247,0.246h0.247
		c4.118-3.509,6.177-8.124,6.177-13.846v-2.471c0-2.292-1.729-5.092-5.188-8.4L161.659,120.058z"/>
</g>
</svg>
